HIERARCHY
ROOT Pelvis
{
	OFFSET 0.000000 0.000000 0.000000
	CHANNELS 6 Xposition Yposition Zposition Xrotation Yrotation Zrotation
	JOINT LeftUpLeg_virtual
	{
		OFFSET 0.000000 0.000000 0.000000
		CHANNELS 3 Xrotation Yrotation Zrotation
		JOINT LeftUpLeg
		{
			OFFSET 8.479700 -4.795502 -0.379100
			CHANNELS 3 Xrotation Yrotation Zrotation
			JOINT LeftLeg
			{
				OFFSET 0.024144 -32.555107 0.112900
				CHANNELS 3 Xrotation Yrotation Zrotation
				JOINT LeftFoot
				{
					OFFSET -0.024144 -32.638630 -3.012600
					CHANNELS 3 Xrotation Yrotation Zrotation
					JOINT LeftToeBase
					{
						OFFSET 0.970200 -13.225400 11.864200
						CHANNELS 3 Xrotation Yrotation Zrotation
						End Site
						{
							OFFSET 0 0 0
						}
					}
				}
			}
		}
	}
	JOINT RightUpLeg_virtual
	{
		OFFSET 0.000000 0.000000 0.000000
		CHANNELS 3 Xrotation Yrotation Zrotation
		JOINT RightUpLeg
		{
			OFFSET -8.479700 -4.795502 -0.379100
			CHANNELS 3 Xrotation Yrotation Zrotation
			JOINT RightLeg
			{
				OFFSET -0.023144 -32.555092 0.112900
				CHANNELS 3 Xrotation Yrotation Zrotation
				JOINT RightFoot
				{
					OFFSET 0.023144 -32.638641 -3.012700
					CHANNELS 3 Xrotation Yrotation Zrotation
					JOINT RightToeBase
					{
						OFFSET -0.970200 -13.225400 11.864200
						CHANNELS 3 Xrotation Yrotation Zrotation
						End Site
						{
							OFFSET 0 0 0
						}
					}
				}
			}
		}
	}
	JOINT Hips_virtual
	{
		OFFSET 0.000000 0.000000 0.000000
		CHANNELS 3 Xrotation Yrotation Zrotation
		JOINT Hips
		{
			OFFSET -0.000000 -0.000000 -0.000000
			CHANNELS 3 Xrotation Yrotation Zrotation
			JOINT Spine
			{
				OFFSET 0.000000 7.722000 1.166200
				CHANNELS 3 Xrotation Yrotation Zrotation
				JOINT Spine1
				{
					OFFSET 0.000000 12.024101 0.248800
					CHANNELS 3 Xrotation Yrotation Zrotation
					JOINT Spine2
					{
						OFFSET 0.000000 11.502998 -0.491200
						CHANNELS 3 Xrotation Yrotation Zrotation
						JOINT Neck_virtual
						{
							OFFSET 0.000000 0.000000 0.000000
							CHANNELS 3 Xrotation Yrotation Zrotation
							JOINT Neck
							{
								OFFSET 0.000000 18.430702 -3.123100
								CHANNELS 3 Xrotation Yrotation Zrotation
								JOINT Head
								{
									OFFSET 0.000000 9.051102 1.034000
									CHANNELS 3 Xrotation Yrotation Zrotation
									End Site
									{
										OFFSET 0 0 0
									}
								}
							}
						}
						JOINT LeftShoulder_virtual
						{
							OFFSET 0.000000 0.000000 0.000000
							CHANNELS 3 Xrotation Yrotation Zrotation
							JOINT LeftShoulder
							{
								OFFSET 6.197800 13.665199 -4.064700
								CHANNELS 3 Xrotation Yrotation Zrotation
								JOINT LeftArm
								{
									OFFSET 7.778100 -0.187103 -1.709300
									CHANNELS 3 Xrotation Yrotation Zrotation
									JOINT LeftForeArm
									{
										OFFSET 22.049376 0.000000 0.000000
										CHANNELS 3 Xrotation Yrotation Zrotation
										JOINT LeftHand
										{
											OFFSET 23.009392 0.000000 0.000000
											CHANNELS 3 Xrotation Yrotation Zrotation
											End Site
											{
												OFFSET 0 0 0
											}
										}
									}
								}
							}
						}
						JOINT RightShoulder_virtual
						{
							OFFSET 0.000000 0.000000 0.000000
							CHANNELS 3 Xrotation Yrotation Zrotation
							JOINT RightShoulder
							{
								OFFSET -6.197800 13.665199 -4.064700
								CHANNELS 3 Xrotation Yrotation Zrotation
								JOINT RightArm
								{
									OFFSET -7.778100 -0.187103 -1.709300
									CHANNELS 3 Xrotation Yrotation Zrotation
									JOINT RightForeArm
									{
										OFFSET -22.049376 0.000000 0.000000
										CHANNELS 3 Xrotation Yrotation Zrotation
										JOINT RightHand
										{
											OFFSET -23.009392 0.000000 0.000000
											CHANNELS 3 Xrotation Yrotation Zrotation
											End Site
											{
												OFFSET 0 0 0
											}
										}
									}
								}
							}
						}
					}
				}
			}
		}
	}
}
MOTION
Frames: 8
Frame Time: 0.03333333
8.383664 67.985992 -4.030880 0.000000 0.000000 0.000000 43.918878 -82.077441 44.534476 -29.699527 -10.486040 23.472876 51.633754 -7.211660 10.030352 -27.109140 -1.519388 -21.452765 0.000000 0.000000 0.000000 43.918878 -82.077441 44.534476 -21.195843 7.171439 -26.157314 48.760543 4.538066 -9.838533 -35.129797 2.699856 23.865846 0.000000 0.000000 0.000000 43.918878 -82.077441 44.534476 0.000000 0.000000 0.000000 1.320152 4.417736 3.210591 1.685962 3.692190 0.960058 0.000000 0.000000 0.000000 1.613183 3.756747 0.980634 -3.532982 9.176827 -1.132674 0.000000 0.000000 0.000000 1.613183 3.756747 0.980634 0.705583 8.677182 -8.120511 -7.703512 12.546983 -67.827781 179.999978 -62.467510 179.999978 0.000000 0.000000 0.000000 1.613183 3.756747 0.980634 0.563286 13.344018 9.556959 -10.871302 35.898641 46.529427 179.999991 78.734862 179.999991 0.000000 0.000000 0.000000 
8.112864 68.284927 -3.964542 0.000000 0.000000 0.000000 34.176139 -81.460012 34.629797 -28.983699 -10.245088 23.560053 50.440520 -7.209675 10.027622 -27.286785 -2.708067 -21.303451 0.000000 0.000000 0.000000 34.176139 -81.460012 34.629797 -19.995440 6.450021 -26.125226 48.570756 4.648489 -9.894396 -33.286118 2.580647 24.421406 0.000000 0.000000 0.000000 34.176139 -81.460012 34.629797 0.000000 0.000000 0.000000 1.315695 4.233167 3.439259 1.674577 3.524486 1.048239 0.000000 0.000000 0.000000 1.609792 3.584470 1.064618 -2.945500 8.978261 -1.211498 0.000000 0.000000 0.000000 1.609792 3.584470 1.064618 0.654794 7.533270 -7.402832 -5.403852 12.550883 -68.677764 179.999964 -61.750279 179.999978 0.000000 0.000000 0.000000 1.609792 3.584470 1.064618 0.654566 13.133320 8.324376 -11.309121 35.091371 48.626859 -179.999704 78.103719 179.999691 0.000000 0.000000 0.000000 
7.739755 69.271584 -3.853527 0.000000 0.000000 0.000000 23.947181 -79.864050 24.328755 -28.818399 -9.316797 23.509726 47.855731 -7.316610 10.055004 -24.976042 -6.099242 -21.786435 0.000000 0.000000 0.000000 23.947181 -79.864050 24.328755 -18.114114 4.874454 -25.975956 46.891673 4.962187 -10.122860 -29.209837 2.375493 25.066335 0.000000 0.000000 0.000000 23.947181 -79.864050 24.328755 0.000000 0.000000 0.000000 1.190792 4.193141 3.672986 1.555126 3.451227 1.016177 0.000000 0.000000 0.000000 1.491296 3.510717 1.023371 -2.505827 8.602217 -1.279738 0.000000 0.000000 0.000000 1.491296 3.510717 1.023371 0.633904 7.205943 -6.991780 -4.027035 9.964017 -67.472058 179.999937 -61.907025 179.999937 0.000000 0.000000 0.000000 1.491296 3.510717 1.023371 0.703598 12.600975 7.607049 -10.772633 34.147568 49.737677 -179.999950 76.738917 179.999923 0.000000 0.000000 0.000000 
7.350904 70.721397 -3.777056 0.000000 0.000000 0.000000 16.186312 -77.438813 16.568161 -28.939914 -7.876866 23.185050 44.150951 -7.397453 10.179229 -20.842645 -10.782123 -22.127914 0.000000 0.000000 0.000000 16.186312 -77.438813 16.568161 -16.330745 3.023511 -25.704302 44.780595 5.316171 -10.253506 -22.934966 2.309312 25.532982 0.000000 0.000000 0.000000 16.186312 -77.438813 16.568161 0.000000 -0.000001 0.000000 0.985039 4.245655 3.843828 1.364926 3.425533 0.933034 0.000000 0.000000 0.000000 1.299354 3.484988 0.928857 -2.094439 8.124937 -1.381036 0.000000 0.000000 0.000000 1.299354 3.484988 0.928857 0.623446 7.184074 -6.717692 -3.255305 6.222747 -65.186287 -179.999964 -62.493635 -179.999978 0.000000 0.000000 0.000000 1.299354 3.484988 0.928857 0.732045 11.989992 7.098539 -9.801467 33.018924 50.192711 179.999896 75.039942 -179.999896 0.000000 0.000000 0.000000 
7.057069 72.440536 -3.810892 0.000000 0.000000 0.000000 11.568624 -74.434295 11.978117 -29.631253 -6.020533 22.378884 39.806247 -7.323849 10.717101 -14.999032 -16.836488 -21.884104 0.000000 0.000000 0.000000 11.568624 -74.434295 11.978117 -15.295389 1.287435 -25.416490 42.819334 5.585079 -9.934090 -14.540392 2.400314 25.748901 0.000000 0.000000 0.000000 11.568624 -74.434295 11.978117 0.000000 0.000001 0.000000 0.699596 4.421531 3.871919 1.114443 3.453959 0.841623 0.000000 0.000000 0.000000 1.046906 3.510683 0.826997 -1.657622 7.599719 -1.553459 0.000000 0.000000 0.000000 1.046906 3.510683 0.826997 0.622371 7.388871 -6.522933 -3.305161 1.831695 -62.504509 -179.999991 -63.269743 180.000005 0.000000 0.000000 0.000000 1.046906 3.510683 0.826997 0.759102 11.455941 6.590172 -8.862482 31.696715 50.076092 -179.999896 73.298120 179.999896 0.000000 0.000000 0.000000 
6.821486 74.322937 -3.904575 0.000000 0.000000 0.000000 8.646692 -71.089203 9.147569 -30.445148 -4.029194 21.050232 34.711670 -7.412061 11.269027 -6.444294 -22.874411 -20.670956 0.000000 0.000000 0.000000 8.646692 -71.089203 9.147569 -14.845947 -0.218712 -25.126173 40.999320 6.057112 -9.235244 -4.397695 3.022246 25.088723 0.000000 0.000000 0.000000 8.646692 -71.089203 9.147569 0.000000 0.000001 0.000000 0.402505 4.602149 3.769648 0.852122 3.485847 0.754326 0.000000 0.000000 0.000000 0.783427 3.538963 0.730216 -1.187060 7.052535 -1.747765 0.000000 0.000000 0.000000 0.783427 3.538963 0.730216 0.631626 7.428716 -6.398274 -3.535911 -2.425788 -59.961500 -179.999978 -64.101066 -179.999964 0.000000 0.000000 0.000000 0.783427 3.538963 0.730216 0.774068 11.005982 6.249560 -7.836075 30.143578 49.304615 179.999978 71.600176 -179.999991 0.000000 0.000000 0.000000 
6.640222 76.247665 -4.079752 0.000000 0.000000 0.000000 6.593915 -67.565611 7.362058 -30.321805 -2.056681 19.256706 28.492047 -7.541904 11.280195 4.033165 -26.452129 -17.402007 0.000000 0.000000 0.000000 6.593915 -67.565611 7.362058 -14.806909 -1.410151 -24.891745 39.230861 6.832981 -7.958298 6.915984 4.459362 22.503610 0.000000 0.000000 0.000000 6.593915 -67.565611 7.362058 0.000000 0.000000 0.000000 0.166619 4.677251 3.415324 0.630404 3.472459 0.703345 0.000000 0.000000 0.000000 0.563984 3.521281 0.671988 -0.599645 6.513453 -1.930972 0.000000 0.000000 0.000000 0.563984 3.521281 0.671988 0.658597 6.706383 -6.285730 -3.925437 -5.346565 -58.100608 -179.999964 -64.764735 -179.999978 0.000000 0.000000 0.000000 0.563984 3.521281 0.671988 0.777443 10.753551 6.177387 -6.848120 28.202114 47.789078 -179.999964 70.117527 179.999950 0.000000 0.000000 0.000000 
6.494339 78.213684 -4.236200 0.000000 0.000000 0.000000 5.217767 -64.118128 6.213932 -28.982921 -0.067388 18.072836 20.801565 -8.546412 9.323473 16.124789 -27.025279 -12.385220 0.000000 0.000000 0.000000 5.217767 -64.118128 6.213932 -14.261351 -2.730331 -24.254715 35.908934 8.506837 -6.273274 18.440722 5.574164 18.044967 0.000000 0.000000 0.000000 5.217767 -64.118128 6.213932 0.000000 -0.000002 0.000000 -0.020421 4.651476 3.093773 0.447786 3.414562 0.672032 0.000000 0.000000 0.000000 0.384778 3.459947 0.635139 -0.066090 6.023353 -2.092371 0.000000 0.000000 0.000000 0.384778 3.459947 0.635139 0.699285 5.760007 -6.278175 -4.279826 -7.456926 -56.699115 179.999964 -65.285612 179.999964 0.000000 0.000000 0.000000 0.384778 3.459947 0.635139 0.767345 10.535642 6.363163 -5.778221 26.229108 45.684776 -179.999868 68.887867 179.999868 0.000000 0.000000 0.000000 
